<?xml version="1.0" encoding="UTF-8" standalone="no"?>
<!DOCTYPE svg PUBLIC "-//W3C//DTD SVG 1.1//EN"
 "http://www.w3.org/Graphics/SVG/1.1/DTD/svg11.dtd">
<!-- Generated by graphviz version 2.36.0 (20140111.2315)
 -->
<!-- Title: G Pages: 1 -->
<svg width="2880pt" height="588pt"
 viewBox="0.00 0.00 2880.00 588.00" xmlns="http://www.w3.org/2000/svg" xmlns:xlink="http://www.w3.org/1999/xlink">
<g id="graph0" class="graph" transform="scale(1 1) rotate(0) translate(4 584)">
<title>G</title>
<polygon fill="white" stroke="none" points="-4,4 -4,-584 2876,-584 2876,4 -4,4"/>
<!-- # -->
<g id="node1" class="node"><title>#</title>
<polygon fill="white" stroke="none" points="8,-130.5 8,-575.5 128,-575.5 128,-130.5 8,-130.5"/>
<polygon fill="wheat" stroke="none" points="10,-561 10,-573 126,-573 126,-561 10,-561"/>
<text text-anchor="start" x="65.5" y="-565.1" font-family="Courier,monospace" font-size="8.00">#</text>
<polygon fill="wheat" stroke="none" points="10,-548 10,-559 126,-559 126,-548 10,-548"/>
<text text-anchor="start" x="43" y="-551.6" font-family="Courier,monospace" font-size="8.00">Definitions</text>
<text text-anchor="start" x="11" y="-538.6" font-family="Courier,monospace" font-size="8.00">[dateValue]</text>
<polygon fill="grey" stroke="none" points="124,-535 124,-546 126,-546 126,-535 124,-535"/>
<text text-anchor="start" x="11" y="-525.6" font-family="Courier,monospace" font-size="8.00">[point]</text>
<polygon fill="grey" stroke="none" points="124,-522 124,-533 126,-533 126,-522 124,-522"/>
<text text-anchor="start" x="11" y="-512.6" font-family="Courier,monospace" font-size="8.00">accountType</text>
<polygon fill="grey" stroke="none" points="124,-509 124,-520 126,-520 126,-509 124,-509"/>
<text text-anchor="start" x="11" y="-499.6" font-family="Courier,monospace" font-size="8.00">allocationPartition</text>
<polygon fill="grey" stroke="none" points="124,-496 124,-507 126,-507 126,-496 124,-496"/>
<text text-anchor="start" x="11" y="-486.6" font-family="Courier,monospace" font-size="8.00">allocationType</text>
<polygon fill="grey" stroke="none" points="124,-483 124,-494 126,-494 126,-483 124,-483"/>
<text text-anchor="start" x="11" y="-473.6" font-family="Courier,monospace" font-size="8.00">assetType</text>
<polygon fill="grey" stroke="none" points="124,-470 124,-481 126,-481 126,-470 124,-470"/>
<text text-anchor="start" x="11" y="-460.6" font-family="Courier,monospace" font-size="8.00">cFlowSequenceSpec</text>
<polygon fill="grey" stroke="none" points="124,-457 124,-468 126,-468 126,-457 124,-457"/>
<text text-anchor="start" x="11" y="-447.6" font-family="Courier,monospace" font-size="8.00">capitalizationPartition</text>
<polygon fill="grey" stroke="none" points="124,-444 124,-455 126,-455 126,-444 124,-444"/>
<text text-anchor="start" x="11" y="-434.6" font-family="Courier,monospace" font-size="8.00">capitalizationType</text>
<polygon fill="grey" stroke="none" points="124,-431 124,-442 126,-442 126,-431 124,-431"/>
<text text-anchor="start" x="11" y="-421.6" font-family="Courier,monospace" font-size="8.00">costBasis</text>
<polygon fill="grey" stroke="none" points="124,-418 124,-429 126,-429 126,-418 124,-418"/>
<text text-anchor="start" x="11" y="-408.6" font-family="Courier,monospace" font-size="8.00">date</text>
<polygon fill="grey" stroke="none" points="124,-405 124,-416 126,-416 126,-405 124,-405"/>
<text text-anchor="start" x="11" y="-395.6" font-family="Courier,monospace" font-size="8.00">dateRange</text>
<polygon fill="grey" stroke="none" points="124,-392 124,-403 126,-403 126,-392 124,-392"/>
<text text-anchor="start" x="11" y="-382.6" font-family="Courier,monospace" font-size="8.00">dateValue</text>
<polygon fill="grey" stroke="none" points="124,-379 124,-390 126,-390 126,-379 124,-379"/>
<text text-anchor="start" x="11" y="-369.6" font-family="Courier,monospace" font-size="8.00">double</text>
<polygon fill="grey" stroke="none" points="124,-366 124,-377 126,-377 126,-366 124,-366"/>
<text text-anchor="start" x="11" y="-356.6" font-family="Courier,monospace" font-size="8.00">dynamic</text>
<polygon fill="grey" stroke="none" points="124,-353 124,-364 126,-364 126,-353 124,-353"/>
<text text-anchor="start" x="11" y="-343.6" font-family="Courier,monospace" font-size="8.00">holdingKey</text>
<polygon fill="grey" stroke="none" points="124,-340 124,-351 126,-351 126,-340 124,-340"/>
<text text-anchor="start" x="11" y="-330.6" font-family="Courier,monospace" font-size="8.00">holdingType</text>
<polygon fill="grey" stroke="none" points="124,-327 124,-338 126,-338 126,-327 124,-327"/>
<text text-anchor="start" x="11" y="-317.6" font-family="Courier,monospace" font-size="8.00">instrumentPartitions</text>
<polygon fill="grey" stroke="none" points="124,-314 124,-325 126,-325 126,-314 124,-314"/>
<text text-anchor="start" x="11" y="-304.6" font-family="Courier,monospace" font-size="8.00">interpolationType</text>
<polygon fill="grey" stroke="none" points="124,-301 124,-312 126,-312 126,-301 124,-301"/>
<text text-anchor="start" x="11" y="-291.6" font-family="Courier,monospace" font-size="8.00">investmentStyle</text>
<polygon fill="grey" stroke="none" points="124,-288 124,-299 126,-299 126,-288 124,-288"/>
<text text-anchor="start" x="11" y="-278.6" font-family="Courier,monospace" font-size="8.00">investmentStylePartition</text>
<polygon fill="grey" stroke="none" points="124,-275 124,-286 126,-286 126,-275 124,-275"/>
<text text-anchor="start" x="11" y="-265.6" font-family="Courier,monospace" font-size="8.00">liabilityType</text>
<polygon fill="grey" stroke="none" points="124,-262 124,-273 126,-273 126,-262 124,-262"/>
<text text-anchor="start" x="11" y="-252.6" font-family="Courier,monospace" font-size="8.00">partitionMapping</text>
<polygon fill="grey" stroke="none" points="124,-249 124,-260 126,-260 126,-249 124,-249"/>
<text text-anchor="start" x="11" y="-239.6" font-family="Courier,monospace" font-size="8.00">paymentFrequency</text>
<polygon fill="grey" stroke="none" points="124,-236 124,-247 126,-247 126,-236 124,-236"/>
<text text-anchor="start" x="11" y="-226.6" font-family="Courier,monospace" font-size="8.00">point</text>
<polygon fill="grey" stroke="none" points="124,-223 124,-234 126,-234 126,-223 124,-223"/>
<text text-anchor="start" x="11" y="-213.6" font-family="Courier,monospace" font-size="8.00">quantityBin</text>
<polygon fill="grey" stroke="none" points="124,-210 124,-221 126,-221 126,-210 124,-210"/>
<text text-anchor="start" x="11" y="-200.6" font-family="Courier,monospace" font-size="8.00">rateCurve</text>
<polygon fill="grey" stroke="none" points="124,-197 124,-208 126,-208 126,-197 124,-197"/>
<text text-anchor="start" x="11" y="-187.6" font-family="Courier,monospace" font-size="8.00">taxCategory</text>
<polygon fill="grey" stroke="none" points="124,-184 124,-195 126,-195 126,-184 124,-184"/>
<text text-anchor="start" x="11" y="-174.6" font-family="Courier,monospace" font-size="8.00">taxType</text>
<polygon fill="grey" stroke="none" points="124,-171 124,-182 126,-182 126,-171 124,-171"/>
<text text-anchor="start" x="11" y="-161.6" font-family="Courier,monospace" font-size="8.00">taxingAuthority</text>
<polygon fill="grey" stroke="none" points="124,-158 124,-169 126,-169 126,-158 124,-158"/>
<text text-anchor="start" x="11" y="-148.6" font-family="Courier,monospace" font-size="8.00">timeSeries</text>
<polygon fill="grey" stroke="none" points="124,-145 124,-156 126,-156 126,-145 124,-145"/>
<text text-anchor="start" x="11" y="-135.6" font-family="Courier,monospace" font-size="8.00">{double}</text>
<polygon fill="grey" stroke="none" points="124,-132 124,-143 126,-143 126,-132 124,-132"/>
</g>
<!-- #/definitions/rateCurve -->
<g id="node2" class="node"><title>#/definitions/rateCurve</title>
<polygon fill="white" stroke="none" points="146.5,-24 146.5,-66 259.5,-66 259.5,-24 146.5,-24"/>
<polygon fill="wheat" stroke="none" points="149,-52 149,-64 258,-64 258,-52 149,-52"/>
<text text-anchor="start" x="151.5" y="-56.1" font-family="Courier,monospace" font-size="8.00">#/definitions/rateCurve</text>
<polygon fill="wheat" stroke="none" points="149,-39 149,-50 258,-50 258,-39 149,-39"/>
<text text-anchor="start" x="180.5" y="-42.6" font-family="Courier,monospace" font-size="8.00">Properties</text>
<text text-anchor="start" x="150" y="-29.6" font-family="Courier,monospace" font-size="8.00">! curveData</text>
<polygon fill="grey" stroke="none" points="218,-26 218,-37 258,-37 258,-26 218,-26"/>
<text text-anchor="start" x="234" y="-29.6" font-family="Courier,monospace" font-size="8.00">array</text>
</g>
<!-- #/definitions/timeSeries -->
<g id="node3" class="node"><title>#/definitions/timeSeries</title>
<polygon fill="white" stroke="none" points="433,-332 433,-374 551,-374 551,-332 433,-332"/>
<polygon fill="wheat" stroke="none" points="435,-360 435,-372 549,-372 549,-360 435,-360"/>
<text text-anchor="start" x="437.5" y="-364.1" font-family="Courier,monospace" font-size="8.00">#/definitions/timeSeries</text>
<polygon fill="wheat" stroke="none" points="435,-347 435,-358 549,-358 549,-347 435,-347"/>
<text text-anchor="start" x="469" y="-350.6" font-family="Courier,monospace" font-size="8.00">Properties</text>
<text text-anchor="start" x="436" y="-337.6" font-family="Courier,monospace" font-size="8.00">! data</text>
<polygon fill="grey" stroke="none" points="496,-334 496,-345 549,-345 549,-334 496,-334"/>
<text text-anchor="start" x="525" y="-337.6" font-family="Courier,monospace" font-size="8.00">array</text>
</g>
<!-- #/definitions/point -->
<g id="node4" class="node"><title>#/definitions/point</title>
<polygon fill="white" stroke="none" points="534.5,-17.5 534.5,-72.5 629.5,-72.5 629.5,-17.5 534.5,-17.5"/>
<polygon fill="wheat" stroke="none" points="537,-58 537,-70 628,-70 628,-58 537,-58"/>
<text text-anchor="start" x="539.5" y="-62.1" font-family="Courier,monospace" font-size="8.00">#/definitions/point</text>
<polygon fill="wheat" stroke="none" points="537,-45 537,-56 628,-56 628,-45 537,-45"/>
<text text-anchor="start" x="559.5" y="-48.6" font-family="Courier,monospace" font-size="8.00">Properties</text>
<text text-anchor="start" x="538" y="-35.6" font-family="Courier,monospace" font-size="8.00">! x</text>
<polygon fill="grey" stroke="none" points="577,-32 577,-43 628,-43 628,-32 577,-32"/>
<text text-anchor="start" x="599" y="-35.6" font-family="Courier,monospace" font-size="8.00">number</text>
<text text-anchor="start" x="538" y="-22.6" font-family="Courier,monospace" font-size="8.00">! y</text>
<polygon fill="grey" stroke="none" points="577,-19 577,-30 628,-30 628,-19 577,-19"/>
<text text-anchor="start" x="599" y="-22.6" font-family="Courier,monospace" font-size="8.00">number</text>
</g>
<!-- #/definitions/costBasis -->
<g id="node5" class="node"><title>#/definitions/costBasis</title>
<polygon fill="white" stroke="none" points="873.5,-325.5 873.5,-380.5 986.5,-380.5 986.5,-325.5 873.5,-325.5"/>
<polygon fill="wheat" stroke="none" points="876,-366 876,-378 985,-378 985,-366 876,-366"/>
<text text-anchor="start" x="878.5" y="-370.1" font-family="Courier,monospace" font-size="8.00">#/definitions/costBasis</text>
<polygon fill="wheat" stroke="none" points="876,-353 876,-364 985,-364 985,-353 876,-353"/>
<text text-anchor="start" x="907.5" y="-356.6" font-family="Courier,monospace" font-size="8.00">Properties</text>
<text text-anchor="start" x="877" y="-343.6" font-family="Courier,monospace" font-size="8.00">! unitValue</text>
<polygon fill="grey" stroke="none" points="952,-340 952,-351 985,-351 985,-340 952,-340"/>
<text text-anchor="start" x="974" y="-343.6" font-family="Courier,monospace" font-size="8.00">{}</text>
<text text-anchor="start" x="877" y="-330.6" font-family="Courier,monospace" font-size="8.00">! units</text>
<polygon fill="grey" stroke="none" points="952,-327 952,-338 985,-338 985,-327 952,-327"/>
<text text-anchor="start" x="974" y="-330.6" font-family="Courier,monospace" font-size="8.00">{}</text>
</g>
<!-- #/definitions/quantityBin -->
<g id="node6" class="node"><title>#/definitions/quantityBin</title>
<polygon fill="white" stroke="none" points="598.5,-325.5 598.5,-380.5 813.5,-380.5 813.5,-325.5 598.5,-325.5"/>
<polygon fill="wheat" stroke="none" points="601,-366 601,-378 812,-378 812,-366 601,-366"/>
<text text-anchor="start" x="650" y="-370.1" font-family="Courier,monospace" font-size="8.00">#/definitions/quantityBin</text>
<polygon fill="wheat" stroke="none" points="601,-353 601,-364 812,-364 812,-353 601,-353"/>
<text text-anchor="start" x="683.5" y="-356.6" font-family="Courier,monospace" font-size="8.00">Properties</text>
<text text-anchor="start" x="602" y="-343.6" font-family="Courier,monospace" font-size="8.00">! data</text>
<polygon fill="grey" stroke="none" points="692,-340 692,-351 812,-351 812,-340 692,-340"/>
<text text-anchor="start" x="788" y="-343.6" font-family="Courier,monospace" font-size="8.00">array</text>
<text text-anchor="start" x="602" y="-330.6" font-family="Courier,monospace" font-size="8.00">! interpolationType</text>
<polygon fill="grey" stroke="none" points="692,-327 692,-338 812,-338 812,-327 692,-327"/>
<text text-anchor="start" x="693" y="-330.6" font-family="Courier,monospace" font-size="8.00">enum=[Linear, Step, Cubic]</text>
</g>
<!-- #/definitions/quantityBin&#45;&gt;#/definitions/point -->
<g id="edge1" class="edge"><title>#/definitions/quantityBin:@data&#45;&gt;#/definitions/point:@path</title>
<path fill="none" stroke="black" d="M600,-345C541.393,-345 672.208,-100.081 638.758,-67.5529"/>
<polygon fill="black" stroke="black" points="639.594,-64.1324 629,-64 637.199,-70.71 639.594,-64.1324"/>
</g>
<!-- #/definitions/interpolationType -->
<g id="node19" class="node"><title>#/definitions/interpolationType</title>
<polygon fill="white" stroke="none" points="663.5,-11 663.5,-79 812.5,-79 812.5,-11 663.5,-11"/>
<polygon fill="wheat" stroke="none" points="666,-65 666,-77 811,-77 811,-65 666,-65"/>
<text text-anchor="start" x="668.5" y="-69.1" font-family="Courier,monospace" font-size="8.00">#/definitions/interpolationType</text>
<polygon fill="beige" stroke="none" points="666,-52 666,-63 811,-63 811,-52 666,-52"/>
<text text-anchor="start" x="713.5" y="-55.6" font-family="Courier,monospace" font-size="8.00">Enum Values</text>
<polygon fill="grey" stroke="none" points="666,-39 666,-50 811,-50 811,-39 666,-39"/>
<text text-anchor="start" x="724.5" y="-42.6" font-family="Courier,monospace" font-size="8.00">Linear</text>
<polygon fill="grey" stroke="none" points="666,-26 666,-37 811,-37 811,-26 666,-26"/>
<text text-anchor="start" x="729" y="-29.6" font-family="Courier,monospace" font-size="8.00">Step</text>
<polygon fill="grey" stroke="none" points="666,-13 666,-24 811,-24 811,-13 666,-13"/>
<text text-anchor="start" x="727" y="-16.6" font-family="Courier,monospace" font-size="8.00">Cubic</text>
</g>
<!-- #/definitions/quantityBin&#45;&gt;#/definitions/interpolationType -->
<g id="edge2" class="edge"><title>#/definitions/quantityBin:@interpolationType&#45;&gt;#/definitions/interpolationType:@path</title>
<path fill="none" stroke="black" d="M645,-326C645,-211.579 733.573,-196.683 738.763,-88.0934"/>
<polygon fill="black" stroke="black" points="742.264,-88.0795 739,-78 735.266,-87.9149 742.264,-88.0795"/>
</g>
<!-- #/definitions/capitalizationPartition -->
<g id="node7" class="node"><title>#/definitions/capitalizationPartition</title>
<polygon fill="white" stroke="none" points="847,-11 847,-79 1023,-79 1023,-11 847,-11"/>
<polygon fill="wheat" stroke="none" points="849,-65 849,-77 1021,-77 1021,-65 849,-65"/>
<text text-anchor="start" x="851.5" y="-69.1" font-family="Courier,monospace" font-size="8.00">#/definitions/capitalizationPartition</text>
<polygon fill="wheat" stroke="none" points="849,-52 849,-63 1021,-63 1021,-52 849,-52"/>
<text text-anchor="start" x="912" y="-55.6" font-family="Courier,monospace" font-size="8.00">Properties</text>
<text text-anchor="start" x="850" y="-42.6" font-family="Courier,monospace" font-size="8.00">! largeCap</text>
<polygon fill="grey" stroke="none" points="954,-39 954,-50 1021,-50 1021,-39 954,-39"/>
<text text-anchor="start" x="1010" y="-42.6" font-family="Courier,monospace" font-size="8.00">{}</text>
<text text-anchor="start" x="850" y="-29.6" font-family="Courier,monospace" font-size="8.00">! midCap</text>
<polygon fill="grey" stroke="none" points="954,-26 954,-37 1021,-37 1021,-26 954,-26"/>
<text text-anchor="start" x="1010" y="-29.6" font-family="Courier,monospace" font-size="8.00">{}</text>
<text text-anchor="start" x="850" y="-16.6" font-family="Courier,monospace" font-size="8.00">! smallCap</text>
<polygon fill="grey" stroke="none" points="954,-13 954,-24 1021,-24 1021,-13 954,-13"/>
<text text-anchor="start" x="1010" y="-16.6" font-family="Courier,monospace" font-size="8.00">{}</text>
</g>
<!-- #/definitions/investmentStylePartition -->
<g id="node8" class="node"><title>#/definitions/investmentStylePartition</title>
<polygon fill="white" stroke="none" points="1057.5,-11 1057.5,-79 1238.5,-79 1238.5,-11 1057.5,-11"/>
<polygon fill="wheat" stroke="none" points="1060,-65 1060,-77 1237,-77 1237,-65 1060,-65"/>
<text text-anchor="start" x="1062.5" y="-69.1" font-family="Courier,monospace" font-size="8.00">#/definitions/investmentStylePartition</text>
<polygon fill="wheat" stroke="none" points="1060,-52 1060,-63 1237,-63 1237,-52 1060,-52"/>
<text text-anchor="start" x="1125.5" y="-55.6" font-family="Courier,monospace" font-size="8.00">Properties</text>
<text text-anchor="start" x="1061" y="-42.6" font-family="Courier,monospace" font-size="8.00">! blend</text>
<polygon fill="grey" stroke="none" points="1163,-39 1163,-50 1237,-50 1237,-39 1163,-39"/>
<text text-anchor="start" x="1226" y="-42.6" font-family="Courier,monospace" font-size="8.00">{}</text>
<text text-anchor="start" x="1061" y="-29.6" font-family="Courier,monospace" font-size="8.00">! growth</text>
<polygon fill="grey" stroke="none" points="1163,-26 1163,-37 1237,-37 1237,-26 1163,-26"/>
<text text-anchor="start" x="1226" y="-29.6" font-family="Courier,monospace" font-size="8.00">{}</text>
<text text-anchor="start" x="1061" y="-16.6" font-family="Courier,monospace" font-size="8.00">! value</text>
<polygon fill="grey" stroke="none" points="1163,-13 1163,-24 1237,-24 1237,-13 1163,-13"/>
<text text-anchor="start" x="1226" y="-16.6" font-family="Courier,monospace" font-size="8.00">{}</text>
</g>
<!-- #/definitions/allocationPartition -->
<g id="node9" class="node"><title>#/definitions/allocationPartition</title>
<polygon fill="white" stroke="none" points="1273,-4.5 1273,-85.5 1431,-85.5 1431,-4.5 1273,-4.5"/>
<polygon fill="wheat" stroke="none" points="1275,-71 1275,-83 1429,-83 1429,-71 1275,-71"/>
<text text-anchor="start" x="1277.5" y="-75.1" font-family="Courier,monospace" font-size="8.00">#/definitions/allocationPartition</text>
<polygon fill="wheat" stroke="none" points="1275,-58 1275,-69 1429,-69 1429,-58 1275,-58"/>
<text text-anchor="start" x="1329" y="-61.6" font-family="Courier,monospace" font-size="8.00">Properties</text>
<text text-anchor="start" x="1276" y="-48.6" font-family="Courier,monospace" font-size="8.00">! bond</text>
<polygon fill="grey" stroke="none" points="1364,-45 1364,-56 1429,-56 1429,-45 1364,-45"/>
<text text-anchor="start" x="1418" y="-48.6" font-family="Courier,monospace" font-size="8.00">{}</text>
<text text-anchor="start" x="1276" y="-35.6" font-family="Courier,monospace" font-size="8.00">! cash</text>
<polygon fill="grey" stroke="none" points="1364,-32 1364,-43 1429,-43 1429,-32 1364,-32"/>
<text text-anchor="start" x="1418" y="-35.6" font-family="Courier,monospace" font-size="8.00">{}</text>
<text text-anchor="start" x="1276" y="-22.6" font-family="Courier,monospace" font-size="8.00">! other</text>
<polygon fill="grey" stroke="none" points="1364,-19 1364,-30 1429,-30 1429,-19 1364,-19"/>
<text text-anchor="start" x="1418" y="-22.6" font-family="Courier,monospace" font-size="8.00">{}</text>
<text text-anchor="start" x="1276" y="-9.6" font-family="Courier,monospace" font-size="8.00">! stock</text>
<polygon fill="grey" stroke="none" points="1364,-6 1364,-17 1429,-17 1429,-6 1364,-6"/>
<text text-anchor="start" x="1418" y="-9.6" font-family="Courier,monospace" font-size="8.00">{}</text>
</g>
<!-- #/definitions/instrumentPartitions -->
<g id="node10" class="node"><title>#/definitions/instrumentPartitions</title>
<polygon fill="white" stroke="none" points="1086.5,-319 1086.5,-387 1351.5,-387 1351.5,-319 1086.5,-319"/>
<polygon fill="wheat" stroke="none" points="1089,-373 1089,-385 1350,-385 1350,-373 1089,-373"/>
<text text-anchor="start" x="1142.5" y="-377.1" font-family="Courier,monospace" font-size="8.00">#/definitions/instrumentPartitions</text>
<polygon fill="wheat" stroke="none" points="1089,-360 1089,-371 1350,-371 1350,-360 1089,-360"/>
<text text-anchor="start" x="1196.5" y="-363.6" font-family="Courier,monospace" font-size="8.00">Properties</text>
<text text-anchor="start" x="1090" y="-350.6" font-family="Courier,monospace" font-size="8.00">! allocationPartition</text>
<polygon fill="grey" stroke="none" points="1212,-347 1212,-358 1350,-358 1350,-347 1212,-347"/>
<text text-anchor="start" x="1213" y="-350.6" font-family="Courier,monospace" font-size="8.00">{properties: {stock: {$ref:...</text>
<text text-anchor="start" x="1090" y="-337.6" font-family="Courier,monospace" font-size="8.00">! capitalizationPartition</text>
<polygon fill="grey" stroke="none" points="1212,-334 1212,-345 1350,-345 1350,-334 1212,-334"/>
<text text-anchor="start" x="1213" y="-337.6" font-family="Courier,monospace" font-size="8.00">{properties: {smallCap: {$r...</text>
<text text-anchor="start" x="1090" y="-324.6" font-family="Courier,monospace" font-size="8.00">! investmentStylePartition</text>
<polygon fill="grey" stroke="none" points="1212,-321 1212,-332 1350,-332 1350,-321 1212,-321"/>
<text text-anchor="start" x="1213" y="-324.6" font-family="Courier,monospace" font-size="8.00">{properties: {value: {$ref:...</text>
</g>
<!-- #/definitions/instrumentPartitions&#45;&gt;#/definitions/capitalizationPartition -->
<g id="edge4" class="edge"><title>#/definitions/instrumentPartitions:@capitalizationPartition&#45;&gt;#/definitions/capitalizationPartition:@path</title>
<path fill="none" stroke="black" d="M1088,-339C1060.15,-339 1053.74,-117.945 1029.83,-77.3604"/>
<polygon fill="black" stroke="black" points="1031.97,-74.5894 1022,-71 1027.55,-80.0223 1031.97,-74.5894"/>
</g>
<!-- #/definitions/instrumentPartitions&#45;&gt;#/definitions/investmentStylePartition -->
<g id="edge5" class="edge"><title>#/definitions/instrumentPartitions:@investmentStylePartition&#45;&gt;#/definitions/investmentStylePartition:@path</title>
<path fill="none" stroke="black" d="M1149,-320C1149,-265.6 1275.64,-98.5143 1247.82,-74.0122"/>
<polygon fill="black" stroke="black" points="1248.59,-70.5878 1238,-71 1246.53,-77.2798 1248.59,-70.5878"/>
</g>
<!-- #/definitions/instrumentPartitions&#45;&gt;#/definitions/allocationPartition -->
<g id="edge3" class="edge"><title>#/definitions/instrumentPartitions:@allocationPartition&#45;&gt;#/definitions/allocationPartition:@path</title>
<path fill="none" stroke="black" d="M1088,-352C1071.55,-352 1083.45,-330.487 1089,-315 1094.11,-300.742 1227.57,-117.646 1265.45,-82.7306"/>
<polygon fill="black" stroke="black" points="1267.64,-85.4748 1274,-77 1263.74,-79.6599 1267.64,-85.4748"/>
</g>
<!-- #/definitions/partitionMapping -->
<g id="node11" class="node"><title>#/definitions/partitionMapping</title>
<polygon fill="white" stroke="none" points="1473.5,-319 1473.5,-387 1618.5,-387 1618.5,-319 1473.5,-319"/>
<polygon fill="wheat" stroke="none" points="1476,-373 1476,-385 1617,-385 1617,-373 1476,-373"/>
<text text-anchor="start" x="1478.5" y="-377.1" font-family="Courier,monospace" font-size="8.00">#/definitions/partitionMapping</text>
<polygon fill="wheat" stroke="none" points="1476,-360 1476,-371 1617,-371 1617,-360 1476,-360"/>
<text text-anchor="start" x="1523.5" y="-363.6" font-family="Courier,monospace" font-size="8.00">Properties</text>
<text text-anchor="start" x="1477" y="-350.6" font-family="Courier,monospace" font-size="8.00">! partitionMap</text>
<polygon fill="grey" stroke="none" points="1568,-347 1568,-358 1617,-358 1617,-347 1568,-347"/>
<text text-anchor="start" x="1588" y="-350.6" font-family="Courier,monospace" font-size="8.00">object</text>
<text text-anchor="start" x="1477" y="-337.6" font-family="Courier,monospace" font-size="8.00">! partitioned</text>
<polygon fill="grey" stroke="none" points="1568,-334 1568,-345 1617,-345 1617,-334 1568,-334"/>
<text text-anchor="start" x="1606" y="-337.6" font-family="Courier,monospace" font-size="8.00">{}</text>
<text text-anchor="start" x="1477" y="-324.6" font-family="Courier,monospace" font-size="8.00">! unpartitioned</text>
<polygon fill="grey" stroke="none" points="1568,-321 1568,-332 1617,-332 1617,-321 1568,-321"/>
<text text-anchor="start" x="1606" y="-324.6" font-family="Courier,monospace" font-size="8.00">{}</text>
</g>
<!-- #/definitions/{double} -->
<g id="node12" class="node"><title>#/definitions/{double}</title>
<polygon fill="white" stroke="none" points="1465.5,-24 1465.5,-66 1574.5,-66 1574.5,-24 1465.5,-24"/>
<polygon fill="wheat" stroke="none" points="1468,-52 1468,-64 1573,-64 1573,-52 1468,-52"/>
<text text-anchor="start" x="1470.5" y="-56.1" font-family="Courier,monospace" font-size="8.00">#/definitions/{double}</text>
<polygon fill="lemonchiffon" stroke="none" points="1468,-39 1468,-50 1573,-50 1573,-39 1468,-39"/>
<text text-anchor="start" x="1473" y="-42.6" font-family="Courier,monospace" font-size="8.00">Additional Properties</text>
<text text-anchor="start" x="1469" y="-29.6" font-family="Courier,monospace" font-size="8.00">Must Be: </text>
<polygon fill="grey" stroke="none" points="1537,-26 1537,-37 1573,-37 1573,-26 1537,-26"/>
<text text-anchor="start" x="1562" y="-29.6" font-family="Courier,monospace" font-size="8.00">{}</text>
</g>
<!-- #/definitions/partitionMapping&#45;&gt;#/definitions/{double} -->
<g id="edge6" class="edge"><title>#/definitions/partitionMapping:@partitionMap&#45;&gt;#/definitions/{double}:@path</title>
<path fill="none" stroke="black" d="M1475,-352C1458.55,-352 1474.32,-331.364 1476,-315 1487.21,-206.096 1519,-179.479 1520.91,-75.016"/>
<polygon fill="black" stroke="black" points="1524.41,-75.0312 1521,-65 1517.41,-74.968 1524.41,-75.0312"/>
</g>
<!-- #/definitions/cFlowSequenceSpec -->
<g id="node13" class="node"><title>#/definitions/cFlowSequenceSpec</title>
<polygon fill="white" stroke="none" points="162.5,-312.5 162.5,-393.5 391.5,-393.5 391.5,-312.5 162.5,-312.5"/>
<polygon fill="wheat" stroke="none" points="165,-379 165,-391 390,-391 390,-379 165,-379"/>
<text text-anchor="start" x="207.5" y="-383.1" font-family="Courier,monospace" font-size="8.00">#/definitions/cFlowSequenceSpec</text>
<polygon fill="wheat" stroke="none" points="165,-366 165,-377 390,-377 390,-366 165,-366"/>
<text text-anchor="start" x="254.5" y="-369.6" font-family="Courier,monospace" font-size="8.00">Properties</text>
<text text-anchor="start" x="166" y="-356.6" font-family="Courier,monospace" font-size="8.00">! dateRange</text>
<polygon fill="grey" stroke="none" points="252,-353 252,-364 390,-364 390,-353 252,-353"/>
<text text-anchor="start" x="379" y="-356.6" font-family="Courier,monospace" font-size="8.00">{}</text>
<text text-anchor="start" x="166" y="-343.6" font-family="Courier,monospace" font-size="8.00">! growth</text>
<polygon fill="grey" stroke="none" points="252,-340 252,-351 390,-351 390,-340 252,-340"/>
<text text-anchor="start" x="253" y="-343.6" font-family="Courier,monospace" font-size="8.00">{properties: {curveData: {$...</text>
<text text-anchor="start" x="166" y="-330.6" font-family="Courier,monospace" font-size="8.00">! initialValue</text>
<polygon fill="grey" stroke="none" points="252,-327 252,-338 390,-338 390,-327 252,-327"/>
<text text-anchor="start" x="379" y="-330.6" font-family="Courier,monospace" font-size="8.00">{}</text>
<text text-anchor="start" x="166" y="-317.6" font-family="Courier,monospace" font-size="8.00">! paymentFrequency</text>
<polygon fill="grey" stroke="none" points="252,-314 252,-325 390,-325 390,-314 252,-314"/>
<text text-anchor="start" x="253" y="-317.6" font-family="Courier,monospace" font-size="8.00">enum=[Once, Monthly, Semian...</text>
</g>
<!-- #/definitions/cFlowSequenceSpec&#45;&gt;#/definitions/rateCurve -->
<g id="edge7" class="edge"><title>#/definitions/cFlowSequenceSpec:@growth&#45;&gt;#/definitions/rateCurve:@path</title>
<path fill="none" stroke="black" d="M164,-345C147.55,-345 161.736,-324.123 165,-308 175.95,-253.918 299.086,-84.315 268.655,-60.732"/>
<polygon fill="black" stroke="black" points="269.575,-57.3551 259,-58 267.669,-64.0906 269.575,-57.3551"/>
</g>
<!-- #/definitions/paymentFrequency -->
<g id="node20" class="node"><title>#/definitions/paymentFrequency</title>
<polygon fill="white" stroke="none" points="293.5,-4.5 293.5,-85.5 438.5,-85.5 438.5,-4.5 293.5,-4.5"/>
<polygon fill="wheat" stroke="none" points="296,-71 296,-83 437,-83 437,-71 296,-71"/>
<text text-anchor="start" x="298.5" y="-75.1" font-family="Courier,monospace" font-size="8.00">#/definitions/paymentFrequency</text>
<polygon fill="beige" stroke="none" points="296,-58 296,-69 437,-69 437,-58 296,-58"/>
<text text-anchor="start" x="341.5" y="-61.6" font-family="Courier,monospace" font-size="8.00">Enum Values</text>
<polygon fill="grey" stroke="none" points="296,-45 296,-56 437,-56 437,-45 296,-45"/>
<text text-anchor="start" x="357" y="-48.6" font-family="Courier,monospace" font-size="8.00">Once</text>
<polygon fill="grey" stroke="none" points="296,-32 296,-43 437,-43 437,-32 296,-32"/>
<text text-anchor="start" x="350.5" y="-35.6" font-family="Courier,monospace" font-size="8.00">Monthly</text>
<polygon fill="grey" stroke="none" points="296,-19 296,-30 437,-30 437,-19 296,-19"/>
<text text-anchor="start" x="343.5" y="-22.6" font-family="Courier,monospace" font-size="8.00">Semiannual</text>
<polygon fill="grey" stroke="none" points="296,-6 296,-17 437,-17 437,-6 296,-6"/>
<text text-anchor="start" x="352.5" y="-9.6" font-family="Courier,monospace" font-size="8.00">Annual</text>
</g>
<!-- #/definitions/cFlowSequenceSpec&#45;&gt;#/definitions/paymentFrequency -->
<g id="edge8" class="edge"><title>#/definitions/cFlowSequenceSpec:@paymentFrequency&#45;&gt;#/definitions/paymentFrequency:@path</title>
<path fill="none" stroke="black" d="M207,-313C207,-287.638 256.289,-114.42 286.36,-82.165"/>
<polygon fill="black" stroke="black" points="288.213,-85.1354 295,-77 284.621,-79.1272 288.213,-85.1354"/>
</g>
<!-- #/definitions/holdingKey -->
<g id="node14" class="node"><title>#/definitions/holdingKey</title>
<polygon fill="white" stroke="none" points="1653,-325.5 1653,-380.5 1771,-380.5 1771,-325.5 1653,-325.5"/>
<polygon fill="wheat" stroke="none" points="1655,-366 1655,-378 1769,-378 1769,-366 1655,-366"/>
<text text-anchor="start" x="1657.5" y="-370.1" font-family="Courier,monospace" font-size="8.00">#/definitions/holdingKey</text>
<polygon fill="wheat" stroke="none" points="1655,-353 1655,-364 1769,-364 1769,-353 1655,-353"/>
<text text-anchor="start" x="1689" y="-356.6" font-family="Courier,monospace" font-size="8.00">Properties</text>
<text text-anchor="start" x="1656" y="-343.6" font-family="Courier,monospace" font-size="8.00">! accountName</text>
<polygon fill="grey" stroke="none" points="1729,-340 1729,-351 1769,-351 1769,-340 1729,-340"/>
<text text-anchor="start" x="1740" y="-343.6" font-family="Courier,monospace" font-size="8.00">string</text>
<text text-anchor="start" x="1656" y="-330.6" font-family="Courier,monospace" font-size="8.00">! holdingName</text>
<polygon fill="grey" stroke="none" points="1729,-327 1729,-338 1769,-338 1769,-327 1729,-327"/>
<text text-anchor="start" x="1740" y="-330.6" font-family="Courier,monospace" font-size="8.00">string</text>
</g>
<!-- #/definitions/accountType -->
<g id="node15" class="node"><title>#/definitions/accountType</title>
<polygon fill="white" stroke="none" points="1805,-260.5 1805,-445.5 1927,-445.5 1927,-260.5 1805,-260.5"/>
<polygon fill="wheat" stroke="none" points="1807,-431 1807,-443 1925,-443 1925,-431 1807,-431"/>
<text text-anchor="start" x="1809.5" y="-435.1" font-family="Courier,monospace" font-size="8.00">#/definitions/accountType</text>
<polygon fill="beige" stroke="none" points="1807,-418 1807,-429 1925,-429 1925,-418 1807,-418"/>
<text text-anchor="start" x="1841" y="-421.6" font-family="Courier,monospace" font-size="8.00">Enum Values</text>
<polygon fill="grey" stroke="none" points="1807,-405 1807,-416 1925,-416 1925,-405 1807,-405"/>
<text text-anchor="start" x="1854.5" y="-408.6" font-family="Courier,monospace" font-size="8.00">Other</text>
<polygon fill="grey" stroke="none" points="1807,-392 1807,-403 1925,-403 1925,-392 1807,-392"/>
<text text-anchor="start" x="1841" y="-395.6" font-family="Courier,monospace" font-size="8.00">RothIrs401k</text>
<polygon fill="grey" stroke="none" points="1807,-379 1807,-390 1925,-390 1925,-379 1807,-379"/>
<text text-anchor="start" x="1825" y="-382.6" font-family="Courier,monospace" font-size="8.00">TraditionalIrs401k</text>
<polygon fill="grey" stroke="none" points="1807,-366 1807,-377 1925,-377 1925,-366 1807,-366"/>
<text text-anchor="start" x="1836.5" y="-369.6" font-family="Courier,monospace" font-size="8.00">CollegeIrs529</text>
<polygon fill="grey" stroke="none" points="1807,-353 1807,-364 1925,-364 1925,-353 1807,-353"/>
<text text-anchor="start" x="1834" y="-356.6" font-family="Courier,monospace" font-size="8.00">TraditionalIra</text>
<polygon fill="grey" stroke="none" points="1807,-340 1807,-351 1925,-351 1925,-340 1807,-340"/>
<text text-anchor="start" x="1843" y="-343.6" font-family="Courier,monospace" font-size="8.00">Investment</text>
<polygon fill="grey" stroke="none" points="1807,-327 1807,-338 1925,-338 1925,-327 1807,-327"/>
<text text-anchor="start" x="1845.5" y="-330.6" font-family="Courier,monospace" font-size="8.00">Brokerage</text>
<polygon fill="grey" stroke="none" points="1807,-314 1807,-325 1925,-325 1925,-314 1807,-314"/>
<text text-anchor="start" x="1847.5" y="-317.6" font-family="Courier,monospace" font-size="8.00">Checking</text>
<polygon fill="grey" stroke="none" points="1807,-301 1807,-312 1925,-312 1925,-301 1807,-301"/>
<text text-anchor="start" x="1820.5" y="-304.6" font-family="Courier,monospace" font-size="8.00">HealthSavingsAccount</text>
<polygon fill="grey" stroke="none" points="1807,-288 1807,-299 1925,-299 1925,-288 1807,-288"/>
<text text-anchor="start" x="1850" y="-291.6" font-family="Courier,monospace" font-size="8.00">Savings</text>
<polygon fill="grey" stroke="none" points="1807,-275 1807,-286 1925,-286 1925,-275 1807,-275"/>
<text text-anchor="start" x="1841" y="-278.6" font-family="Courier,monospace" font-size="8.00">MoneyMarket</text>
<polygon fill="grey" stroke="none" points="1807,-262 1807,-273 1925,-273 1925,-262 1807,-262"/>
<text text-anchor="start" x="1847.5" y="-265.6" font-family="Courier,monospace" font-size="8.00">Mattress</text>
</g>
<!-- #/definitions/assetType -->
<g id="node16" class="node"><title>#/definitions/assetType</title>
<polygon fill="white" stroke="none" points="1961.5,-254 1961.5,-452 2074.5,-452 2074.5,-254 1961.5,-254"/>
<polygon fill="wheat" stroke="none" points="1964,-438 1964,-450 2073,-450 2073,-438 1964,-438"/>
<text text-anchor="start" x="1966.5" y="-442.1" font-family="Courier,monospace" font-size="8.00">#/definitions/assetType</text>
<polygon fill="beige" stroke="none" points="1964,-425 1964,-436 2073,-436 2073,-425 1964,-425"/>
<text text-anchor="start" x="1993.5" y="-428.6" font-family="Courier,monospace" font-size="8.00">Enum Values</text>
<polygon fill="grey" stroke="none" points="1964,-412 1964,-423 2073,-423 2073,-412 1964,-412"/>
<text text-anchor="start" x="2007" y="-415.6" font-family="Courier,monospace" font-size="8.00">Other</text>
<polygon fill="grey" stroke="none" points="1964,-399 1964,-410 2073,-410 2073,-399 1964,-399"/>
<text text-anchor="start" x="1995.5" y="-402.6" font-family="Courier,monospace" font-size="8.00">Investment</text>
<polygon fill="grey" stroke="none" points="1964,-386 1964,-397 2073,-397 2073,-386 1964,-386"/>
<text text-anchor="start" x="1982" y="-389.6" font-family="Courier,monospace" font-size="8.00">PrimaryResidence</text>
<polygon fill="grey" stroke="none" points="1964,-373 1964,-384 2073,-384 2073,-373 1964,-373"/>
<text text-anchor="start" x="1986.5" y="-376.6" font-family="Courier,monospace" font-size="8.00">FamilyProperty</text>
<polygon fill="grey" stroke="none" points="1964,-360 1964,-371 2073,-371 2073,-360 1964,-360"/>
<text text-anchor="start" x="1975.5" y="-363.6" font-family="Courier,monospace" font-size="8.00">FinancialInstrument</text>
<polygon fill="grey" stroke="none" points="1964,-347 1964,-358 2073,-358 2073,-347 1964,-347"/>
<text text-anchor="start" x="1995.5" y="-350.6" font-family="Courier,monospace" font-size="8.00">Automobile</text>
<polygon fill="grey" stroke="none" points="1964,-334 1964,-345 2073,-345 2073,-334 1964,-334"/>
<text text-anchor="start" x="1975.5" y="-337.6" font-family="Courier,monospace" font-size="8.00">LifeInsurancePolicy</text>
<polygon fill="grey" stroke="none" points="1964,-321 1964,-332 2073,-332 2073,-321 1964,-321"/>
<text text-anchor="start" x="1977.5" y="-324.6" font-family="Courier,monospace" font-size="8.00">CompanyStockOption</text>
<polygon fill="grey" stroke="none" points="1964,-308 1964,-319 2073,-319 2073,-308 1964,-308"/>
<text text-anchor="start" x="2002.5" y="-311.6" font-family="Courier,monospace" font-size="8.00">Savings</text>
<polygon fill="grey" stroke="none" points="1964,-295 1964,-306 2073,-306 2073,-295 1964,-295"/>
<text text-anchor="start" x="1986.5" y="-298.6" font-family="Courier,monospace" font-size="8.00">CollegeSavings</text>
<polygon fill="grey" stroke="none" points="1964,-282 1964,-293 2073,-293 2073,-282 1964,-282"/>
<text text-anchor="start" x="1980" y="-285.6" font-family="Courier,monospace" font-size="8.00">RetirementSavings</text>
<polygon fill="grey" stroke="none" points="1964,-269 1964,-280 2073,-280 2073,-269 1964,-269"/>
<text text-anchor="start" x="2009" y="-272.6" font-family="Courier,monospace" font-size="8.00">Cash</text>
<polygon fill="grey" stroke="none" points="1964,-256 1964,-267 2073,-267 2073,-256 1964,-256"/>
<text text-anchor="start" x="1986.5" y="-259.6" font-family="Courier,monospace" font-size="8.00">RentalProperty</text>
</g>
<!-- #/definitions/liabilityType -->
<g id="node17" class="node"><title>#/definitions/liabilityType</title>
<polygon fill="white" stroke="none" points="2108.5,-306 2108.5,-400 2239.5,-400 2239.5,-306 2108.5,-306"/>
<polygon fill="wheat" stroke="none" points="2111,-386 2111,-398 2238,-398 2238,-386 2111,-386"/>
<text text-anchor="start" x="2113.5" y="-390.1" font-family="Courier,monospace" font-size="8.00">#/definitions/liabilityType</text>
<polygon fill="beige" stroke="none" points="2111,-373 2111,-384 2238,-384 2238,-373 2111,-373"/>
<text text-anchor="start" x="2149.5" y="-376.6" font-family="Courier,monospace" font-size="8.00">Enum Values</text>
<polygon fill="grey" stroke="none" points="2111,-360 2111,-371 2238,-371 2238,-360 2111,-360"/>
<text text-anchor="start" x="2163" y="-363.6" font-family="Courier,monospace" font-size="8.00">Other</text>
<polygon fill="grey" stroke="none" points="2111,-347 2111,-358 2238,-358 2238,-347 2111,-347"/>
<text text-anchor="start" x="2156" y="-350.6" font-family="Courier,monospace" font-size="8.00">Mortgage</text>
<polygon fill="grey" stroke="none" points="2111,-334 2111,-345 2238,-345 2238,-334 2111,-334"/>
<text text-anchor="start" x="2156" y="-337.6" font-family="Courier,monospace" font-size="8.00">AutoLoan</text>
<polygon fill="grey" stroke="none" points="2111,-321 2111,-332 2238,-332 2238,-321 2111,-321"/>
<text text-anchor="start" x="2149.5" y="-324.6" font-family="Courier,monospace" font-size="8.00">CollegeDebt</text>
<polygon fill="grey" stroke="none" points="2111,-308 2111,-319 2238,-319 2238,-308 2111,-308"/>
<text text-anchor="start" x="2142.5" y="-311.6" font-family="Courier,monospace" font-size="8.00">CreditCardDebt</text>
</g>
<!-- #/definitions/holdingType -->
<g id="node18" class="node"><title>#/definitions/holdingType</title>
<polygon fill="white" stroke="none" points="2274,-306 2274,-400 2396,-400 2396,-306 2274,-306"/>
<polygon fill="wheat" stroke="none" points="2276,-386 2276,-398 2394,-398 2394,-386 2276,-386"/>
<text text-anchor="start" x="2278.5" y="-390.1" font-family="Courier,monospace" font-size="8.00">#/definitions/holdingType</text>
<polygon fill="beige" stroke="none" points="2276,-373 2276,-384 2394,-384 2394,-373 2276,-373"/>
<text text-anchor="start" x="2310" y="-376.6" font-family="Courier,monospace" font-size="8.00">Enum Values</text>
<polygon fill="grey" stroke="none" points="2276,-360 2276,-371 2394,-371 2394,-360 2276,-360"/>
<text text-anchor="start" x="2323.5" y="-363.6" font-family="Courier,monospace" font-size="8.00">Other</text>
<polygon fill="grey" stroke="none" points="2276,-347 2276,-358 2394,-358 2394,-347 2276,-347"/>
<text text-anchor="start" x="2323.5" y="-350.6" font-family="Courier,monospace" font-size="8.00">Stock</text>
<polygon fill="grey" stroke="none" points="2276,-334 2276,-345 2394,-345 2394,-334 2276,-334"/>
<text text-anchor="start" x="2325.5" y="-337.6" font-family="Courier,monospace" font-size="8.00">Bond</text>
<polygon fill="grey" stroke="none" points="2276,-321 2276,-332 2394,-332 2394,-321 2276,-321"/>
<text text-anchor="start" x="2325.5" y="-324.6" font-family="Courier,monospace" font-size="8.00">Cash</text>
<polygon fill="grey" stroke="none" points="2276,-308 2276,-319 2394,-319 2394,-308 2276,-308"/>
<text text-anchor="start" x="2323.5" y="-311.6" font-family="Courier,monospace" font-size="8.00">Blend</text>
</g>
<!-- #/definitions/taxCategory -->
<g id="node21" class="node"><title>#/definitions/taxCategory</title>
<polygon fill="white" stroke="none" points="2430,-260.5 2430,-445.5 2552,-445.5 2552,-260.5 2430,-260.5"/>
<polygon fill="wheat" stroke="none" points="2432,-431 2432,-443 2550,-443 2550,-431 2432,-431"/>
<text text-anchor="start" x="2434.5" y="-435.1" font-family="Courier,monospace" font-size="8.00">#/definitions/taxCategory</text>
<polygon fill="beige" stroke="none" points="2432,-418 2432,-429 2550,-429 2550,-418 2432,-418"/>
<text text-anchor="start" x="2466" y="-421.6" font-family="Courier,monospace" font-size="8.00">Enum Values</text>
<polygon fill="grey" stroke="none" points="2432,-405 2432,-416 2550,-416 2550,-405 2432,-405"/>
<text text-anchor="start" x="2466" y="-408.6" font-family="Courier,monospace" font-size="8.00">LaborIncome</text>
<polygon fill="grey" stroke="none" points="2432,-392 2432,-403 2550,-403 2550,-392 2432,-392"/>
<text text-anchor="start" x="2459" y="-395.6" font-family="Courier,monospace" font-size="8.00">InterestIncome</text>
<polygon fill="grey" stroke="none" points="2432,-379 2432,-390 2550,-390 2550,-379 2432,-379"/>
<text text-anchor="start" x="2439" y="-382.6" font-family="Courier,monospace" font-size="8.00">QualifiedDividendIncome</text>
<polygon fill="grey" stroke="none" points="2432,-366 2432,-377 2550,-377 2550,-366 2432,-366"/>
<text text-anchor="start" x="2434.5" y="-369.6" font-family="Courier,monospace" font-size="8.00">UnqualifiedDividendIncome</text>
<polygon fill="grey" stroke="none" points="2432,-353 2432,-364 2550,-364 2550,-353 2432,-353"/>
<text text-anchor="start" x="2445.5" y="-356.6" font-family="Courier,monospace" font-size="8.00">ShortTermCapitalGain</text>
<polygon fill="grey" stroke="none" points="2432,-340 2432,-351 2550,-351 2550,-340 2432,-340"/>
<text text-anchor="start" x="2448" y="-343.6" font-family="Courier,monospace" font-size="8.00">LongTermCapitalGain</text>
<polygon fill="grey" stroke="none" points="2432,-327 2432,-338 2550,-338 2550,-327 2432,-327"/>
<text text-anchor="start" x="2445.5" y="-330.6" font-family="Courier,monospace" font-size="8.00">SocialSecurityIncome</text>
<polygon fill="grey" stroke="none" points="2432,-314 2432,-325 2550,-325 2550,-314 2432,-314"/>
<text text-anchor="start" x="2461.5" y="-317.6" font-family="Courier,monospace" font-size="8.00">PensionIncome</text>
<polygon fill="grey" stroke="none" points="2432,-301 2432,-312 2550,-312 2550,-301 2432,-301"/>
<text text-anchor="start" x="2448" y="-304.6" font-family="Courier,monospace" font-size="8.00">OtherOrdinaryIncome</text>
<polygon fill="grey" stroke="none" points="2432,-288 2432,-299 2550,-299 2550,-288 2432,-288"/>
<text text-anchor="start" x="2466" y="-291.6" font-family="Courier,monospace" font-size="8.00">Inheritance</text>
<polygon fill="grey" stroke="none" points="2432,-275 2432,-286 2550,-286 2550,-275 2432,-275"/>
<text text-anchor="start" x="2463.5" y="-278.6" font-family="Courier,monospace" font-size="8.00">RentalIncome</text>
<polygon fill="grey" stroke="none" points="2432,-262 2432,-273 2550,-273 2550,-262 2432,-262"/>
<text text-anchor="start" x="2461.5" y="-265.6" font-family="Courier,monospace" font-size="8.00">PropertyValue</text>
</g>
<!-- #/definitions/taxType -->
<g id="node22" class="node"><title>#/definitions/taxType</title>
<polygon fill="white" stroke="none" points="2586,-286.5 2586,-419.5 2690,-419.5 2690,-286.5 2586,-286.5"/>
<polygon fill="wheat" stroke="none" points="2588,-405 2588,-417 2688,-417 2688,-405 2588,-405"/>
<text text-anchor="start" x="2590.5" y="-409.1" font-family="Courier,monospace" font-size="8.00">#/definitions/taxType</text>
<polygon fill="beige" stroke="none" points="2588,-392 2588,-403 2688,-403 2688,-392 2588,-392"/>
<text text-anchor="start" x="2613" y="-395.6" font-family="Courier,monospace" font-size="8.00">Enum Values</text>
<polygon fill="grey" stroke="none" points="2588,-379 2588,-390 2688,-390 2688,-379 2588,-379"/>
<text text-anchor="start" x="2606" y="-382.6" font-family="Courier,monospace" font-size="8.00">OrdinaryIncome</text>
<polygon fill="grey" stroke="none" points="2588,-366 2588,-377 2688,-377 2688,-366 2588,-366"/>
<text text-anchor="start" x="2599.5" y="-369.6" font-family="Courier,monospace" font-size="8.00">QualifiedDividend</text>
<polygon fill="grey" stroke="none" points="2588,-353 2588,-364 2688,-364 2688,-353 2588,-353"/>
<text text-anchor="start" x="2595" y="-356.6" font-family="Courier,monospace" font-size="8.00">LongTermCapitalGain</text>
<polygon fill="grey" stroke="none" points="2588,-340 2588,-351 2688,-351 2688,-340 2588,-340"/>
<text text-anchor="start" x="2592.5" y="-343.6" font-family="Courier,monospace" font-size="8.00">ShortTermCapitalGain</text>
<polygon fill="grey" stroke="none" points="2588,-327 2588,-338 2688,-338 2688,-327 2588,-327"/>
<text text-anchor="start" x="2613" y="-330.6" font-family="Courier,monospace" font-size="8.00">Inheritance</text>
<polygon fill="grey" stroke="none" points="2588,-314 2588,-325 2688,-325 2688,-314 2588,-314"/>
<text text-anchor="start" x="2619.5" y="-317.6" font-family="Courier,monospace" font-size="8.00">Medicare</text>
<polygon fill="grey" stroke="none" points="2588,-301 2588,-312 2688,-312 2688,-301 2588,-301"/>
<text text-anchor="start" x="2606" y="-304.6" font-family="Courier,monospace" font-size="8.00">SocialSecurity</text>
<polygon fill="grey" stroke="none" points="2588,-288 2588,-299 2688,-299 2688,-288 2588,-288"/>
<text text-anchor="start" x="2619.5" y="-291.6" font-family="Courier,monospace" font-size="8.00">Property</text>
</g>
<!-- #/definitions/taxingAuthority -->
<g id="node23" class="node"><title>#/definitions/taxingAuthority</title>
<polygon fill="white" stroke="none" points="2724,-325.5 2724,-380.5 2864,-380.5 2864,-325.5 2724,-325.5"/>
<polygon fill="wheat" stroke="none" points="2726,-366 2726,-378 2862,-378 2862,-366 2726,-366"/>
<text text-anchor="start" x="2728.5" y="-370.1" font-family="Courier,monospace" font-size="8.00">#/definitions/taxingAuthority</text>
<polygon fill="beige" stroke="none" points="2726,-353 2726,-364 2862,-364 2862,-353 2726,-353"/>
<text text-anchor="start" x="2769" y="-356.6" font-family="Courier,monospace" font-size="8.00">Enum Values</text>
<polygon fill="grey" stroke="none" points="2726,-340 2726,-351 2862,-351 2862,-340 2726,-340"/>
<text text-anchor="start" x="2778" y="-343.6" font-family="Courier,monospace" font-size="8.00">Federal</text>
<polygon fill="grey" stroke="none" points="2726,-327 2726,-338 2862,-338 2862,-327 2726,-327"/>
<text text-anchor="start" x="2782.5" y="-330.6" font-family="Courier,monospace" font-size="8.00">State</text>
</g>
</g>
</svg>
